<svg fill="none" height="24" viewBox="0 0 24 24" width="24" xmlns="http://www.w3.org/2000/svg"><path clip-rule="evenodd" d="m16.3264 6c1.364 0 2.5563.92011 2.902 2.23952l.7121 2.71618c.8409.6124 1.4835 1.4807 1.8134 2.4905l-1.2088.5376h-1.5227l-.9224 1.8986.9224-.8824h2.0257l.7081-1.5468c.1582.4871.2438 1.007.2438 1.5468v4c-3.1667.234-6.3333.3511-9.5.3511-3.16667 0-6.33333-.1171-9.5-.3511v-4c0-1.661.80993-3.1328 2.05641-4.0421l.70966-2.71637c.34503-1.3204 1.5378-2.24153 2.90254-2.24153zm1.7736 8.0165c-1.9365.3116-3.8031.4674-5.6.4674s-3.59218-.1558-5.38599-.4674l.93445 1.8659-1.10034 2.1843c1.80798.2964 3.65858.4447 5.55188.4447s3.7599-.1483 5.6-.4447l-1.1001-2.1843zm-5.6.9835c.2761 0 .5.2239.5.5s-.2239.5-.5.5-.5-.2239-.5-.5.2239-.5.5-.5zm-9.2124-1.5562.7124 1.5562h2.02576l.92236.8824-.92236-1.8986h-1.52271zm17.2124-3.93886c.0562 0 .112.00948.1651.02805l1 .34985c.2006.07017.3349.25946.3349.47196v.1452c0 .2761-.2239.5-.5.5h-1c-.2761 0-.5-.2239-.5-.5v-.4951c0-.27611.2239-.49996.5-.49996zm-4.1025-2.50494h-7.75447c-.8954 0-1.67416.59363-1.9203 1.44081l-.03981.16173-.48614 2.39746c2.16934-.1888 4.33762-.2831 6.50482-.2831 1.8576 0 3.6364.0693 5.3363.208l.8434.0751-.5299-2.42665c-.2005-.91852-1.0138-1.57335-1.9539-1.57335zm-11.42532 2.84261c.01842.05287.02782.10846.02782.16449v.4929c0 .2761-.22386.5-.5.5h-1c-.27614 0-.5-.2239-.5-.5v-.1447c0-.2127.13463-.40219.33555-.47216l1-.34827c.26078-.09082.54581.04696.63663.30774z" fill="#a4a4a4" fill-rule="evenodd"/></svg>