<svg fill="none" height="24" viewBox="0 0 24 24" width="24" xmlns="http://www.w3.org/2000/svg"><path clip-rule="evenodd" d="m21.1255 4c.3041 0 .4143.03166.5255.09111.1112.05946.1984.1467.2579.25787.0594.11117.0911.22144.0911.52552v11.4684c0 .3041-.0317.4143-.0911.5255-.0595.1112-.1467.1984-.2579.2579-.1112.0594-.2214.0911-.5255.0911h-7.0325v1.3913h2.1551c.0941 0 .1705.0764.1705.1705v1.0503c0 .0941-.0764.1705-.1705.1705h-8.18608c-.09419 0-.17055-.0764-.17055-.1705v-1.0503c0-.0941.07636-.1705.17055-.1705h2.15508v-1.3913h-7.3426c-.30408 0-.41435-.0317-.52552-.0911-.11117-.0595-.19841-.1467-.25787-.2579-.05945-.1112-.09111-.2214-.09111-.5255v-11.4684c0-.30408.03166-.41435.09111-.52552.05946-.11117.1467-.19841.25787-.25787.11117-.05945.22144-.09111.52552-.09111zm-1.1255 2h-16v9h16z" fill="#a4a4a4" fill-rule="evenodd"/></svg>