<svg fill="none" height="24" viewBox="0 0 24 24" width="24" xmlns="http://www.w3.org/2000/svg"><path clip-rule="evenodd" d="m15.9501 6 .0116.00086.0217-.00086c1.5408 0 2.8482 1.01674 3.309 2.42658l1.9647 5.52842.0182.0624c.1316.3936.1829.8209.1365 1.2603-.1738 1.648-1.6553 2.8435-3.309 2.6703-.9218-.0966-1.7025-.598-2.1829-1.3082l-.0682-.0877-.0605-.0955-1.2446-2.1835h-5.25602l-.92843 1.8809c-.37651.8976-1.18217 1.5907-2.19746 1.7891l-.16297.0273c-1.64668.2306-3.16918-.9126-3.4006-2.5535-.05628-.399-.03103-.7907.06312-1.1584.00925-.0575.02345-.1155.04224-.1731l1.75077-5.36431c.36549-1.56055 1.74523-2.72109 3.39148-2.72109zm-6.04131 5.0005c-.55428 0-1.00362.4477-1.00362 1.0001 0 .5523.44934 1 1.00362 1 .55431 0 1.00361-.4477 1.00361-1 0-.5524-.4493-1.0001-1.00361-1.0001zm4.01451 0c-.5543 0-1.0036.4477-1.0036 1.0001 0 .5523.4493 1 1.0036 1s1.0036-.4477 1.0036-1c0-.5524-.4493-1.0001-1.0036-1.0001zm-6.52356-3.00031c-.24943 0-.45635.18198-.49524.42041l-.00657.0814-.00049.498-.50309.00028c-.24855 0-.45475.18134-.4935.41894l-.00655.08111c0 .24855.18135.45474.41894.4935l.08111.00657.50309-.0001.00049.4984c0 .2494.18198.4563.42041.4952l.0814.0066c.24943 0 .45635-.182.49524-.4205l.00657-.0813-.00039-.4984.50397.0001c.24855 0 .45474-.18137.4935-.41896l.00654-.08111c0-.24856-.18134-.45475-.41893-.49351l-.08111-.00654-.50397-.00028.00039-.498c0-.24943-.18198-.45636-.42042-.49525zm9.03256 2.00021c-.2771 0-.5018.2238-.5018.5s.2247.5001.5018.5001c.2772 0 .5019-.2239.5019-.5001s-.2247-.5-.5019-.5zm-1.0036-1.00012c-.2771 0-.5018.22388-.5018.50005 0 .27616.2247.50007.5018.50007.2772 0 .5018-.22391.5018-.50007 0-.27617-.2246-.50005-.5018-.50005zm2.0073 0c-.2772 0-.5018.22388-.5018.50005 0 .27616.2246.50007.5018.50007.2771 0 .5018-.22391.5018-.50007 0-.27617-.2247-.50005-.5018-.50005zm-1.0037-1.00009c-.2771 0-.5018.22387-.5018.50004s.2247.50005.5018.50005c.2772 0 .5019-.22388.5019-.50005s-.2247-.50004-.5019-.50004z" fill="#a4a4a4" fill-rule="evenodd"/></svg>