<svg width="24" height="24" viewBox="0 0 24 24" fill="none" xmlns="http://www.w3.org/2000/svg">
<path d="M7.92834 13.7071C7.5556 13.5828 7.15729 13.5145 6.74245 13.5145C4.67591 13.5145 3 15.1895 3 17.2568C3 17.6825 3.07202 18.0911 3.20299 18.4725L5.7388 15.9366L8.13177 18.3296L5.62979 20.8317C5.98133 20.9412 6.35497 20.9995 6.7426 21C8.80975 21 10.4852 19.3241 10.4852 17.2572C10.4852 16.7478 10.3834 16.2626 10.1988 15.8198L15.7279 10.2929C16.1005 10.4172 16.499 10.4855 16.9137 10.4855C18.9802 10.4855 20.6563 8.8102 20.6563 6.74305C20.6563 6.31738 20.5843 5.90886 20.4533 5.52755L17.9175 8.06336L15.5244 5.67024L18.0265 3.16825C17.6749 3.05894 17.3013 3.00015 16.9137 3C14.8465 3 13.1711 4.67561 13.1711 6.7426C13.1711 7.25202 13.2729 7.73723 13.4575 8.17989L7.92834 13.7071Z" fill="#A4A4A4"/>
</svg>
