<svg fill="none" height="24" viewBox="0 0 24 24" width="24" xmlns="http://www.w3.org/2000/svg"><path clip-rule="evenodd" d="m4 2c.55228 0 1 .44772 1 1v16h16c.5523 0 1 .4477 1 1s-.4477 1-1 1h-17c-.55228 0-1-.4477-1-1v-17c0-.55228.44772-1 1-1zm14.4484 2.60446c.474.2737.6365.8799.3628 1.35397-.0015.00253-.003.00506-.0045.00759l-4.8045 8.15388c-.0977.1658-.2471.2824-.4156.3412-.4127.1944-.9203.0853-1.2135-.2899l-2.1581-2.7622-1.97469 5.1465c-.19792.5156-.77634.7732-1.29195.5752-.5156-.1979-.77313-.7763-.57521-1.2919l2.50858-6.53507c.19792-.51561.77634-.77314 1.29197-.57522.0865.0332.1657.07711.2367.12962.074.0476.1425.10716.2024.1782l2.4452 2.90367 4.0243-6.96952c.2762-.47829.8878-.64216 1.3661-.36602z" fill="#a4a4a4" fill-rule="evenodd"/></svg>