<svg fill="none" height="24" viewBox="0 0 24 24" width="24" xmlns="http://www.w3.org/2000/svg"><path clip-rule="evenodd" d="m14.2727 2c.2511 0 .4546.20351.4546.45455v4.0909h2.7272c.5021 0 .9091.40702.9091.9091v12.72725c0 .5021-.407.9091-.9091.9091h-.9091v.4546c0 .251-.2035.4545-.4545.4545h-.9091c-.251 0-.4545-.2035-.4545-.4545v-.4546h-5.45458v.4546c0 .251-.20351.4545-.45455.4545h-.90909c-.25104 0-.45455-.2035-.45455-.4545v-.4546h-.90909c-.50207 0-.90909-.407-.90909-.9091v-12.72725c0-.50208.40702-.9091.90909-.9091h2.72728v-4.0909c0-.25104.2035-.45455.45454-.45455zm.4546 12.7273h-5.45458c-.46622 0-.85046.3509-.90298.803l-.00611.1061v2.7272c0 .4663.35094.8505.80307.903l.10602.0061h5.45458c.4662 0 .8504-.3509.9029-.803l.0062-.1061v-2.7272c0-.5021-.4071-.9091-.9091-.9091zm-1.3637-5.45457h-2.7272c-.2511 0-.4546.2035-.4546.45454 0 .22315.1608.40873.3728.44723l.0818.0073h2.7272c.2511 0 .4546-.20349.4546-.45453s-.2035-.45454-.4546-.45454zm.4546-6.36364h-3.6364v3.63636h3.6364z" fill="#a4a4a4" fill-rule="evenodd"/></svg>